<svg xmlns="http://www.w3.org/2000/svg" width="1600" height="800" viewBox="0 0 1600 800" fill="none">

<rect width="1600" height="800" fill="#F6F2EA"/>
<text x="800" y="85" text-anchor="middle" font-family="Arial" font-size="40" font-weight="700" fill="#7A1F1F">MOT SO MOC THE CHE LIEN QUAN</text>
<line x1="180" y1="420" x2="1420" y2="420" stroke="#C6A96A" stroke-width="8" stroke-linecap="round"/>
<circle cx="280" cy="420" r="16" fill="#7A1F1F"/><rect x="160" y="230" width="240" height="120" rx="16" fill="white" stroke="#D8CFC1"/><text x="280" y="268" text-anchor="middle" font-family="Arial" font-size="22" font-weight="700" fill="#121212">2018</text><text x="280" y="302" text-anchor="middle" font-family="Arial" font-size="18" fill="#8B8B8B">Luat phong chong</text><text x="280" y="328" text-anchor="middle" font-family="Arial" font-size="18" fill="#8B8B8B">tham nhung</text>
<circle cx="620" cy="420" r="16" fill="#7A1F1F"/><rect x="500" y="500" width="240" height="120" rx="16" fill="white" stroke="#D8CFC1"/><text x="620" y="538" text-anchor="middle" font-family="Arial" font-size="22" font-weight="700" fill="#121212">2022</text><text x="620" y="572" text-anchor="middle" font-family="Arial" font-size="18" fill="#8B8B8B">Luat thuc hien</text><text x="620" y="598" text-anchor="middle" font-family="Arial" font-size="18" fill="#8B8B8B">dan chu o co so</text>
<circle cx="960" cy="420" r="16" fill="#7A1F1F"/><rect x="840" y="230" width="240" height="120" rx="16" fill="white" stroke="#D8CFC1"/><text x="960" y="268" text-anchor="middle" font-family="Arial" font-size="22" font-weight="700" fill="#121212">2023</text><text x="960" y="302" text-anchor="middle" font-family="Arial" font-size="18" fill="#8B8B8B">Ban thanh tra</text><text x="960" y="328" text-anchor="middle" font-family="Arial" font-size="18" fill="#8B8B8B">nhan dan</text>
<circle cx="1300" cy="420" r="16" fill="#7A1F1F"/><rect x="1180" y="500" width="240" height="120" rx="16" fill="white" stroke="#D8CFC1"/><text x="1300" y="538" text-anchor="middle" font-family="Arial" font-size="22" font-weight="700" fill="#121212">2025-2026</text><text x="1300" y="572" text-anchor="middle" font-family="Arial" font-size="18" fill="#8B8B8B">Hoan thien giam sat</text><text x="1300" y="598" text-anchor="middle" font-family="Arial" font-size="18" fill="#8B8B8B">va sap xep bo may</text>

</svg>